<svg xmlns="http://www.w3.org/2000/svg" version="1.1" xmlns:xlink="http://www.w3.org/1999/xlink" xmlns:svgjs="http://svgjs.com/svgjs" viewBox="0 0 140 140" width="140" height="140"><g transform="matrix(5.833333333333333,0,0,5.833333333333333,0,0)"><path d="M23.121,3,21,.877a1.5,1.5,0,0,0-2.122,0l-.569.569a1,1,0,0,0,.26,1.6l.515.257a.25.25,0,0,1,.126.145l.176.528a1.007,1.007,0,0,0,.632.633l.529.176a.246.246,0,0,1,.144.126l.258.515a1,1,0,0,0,.733.54,1.106,1.106,0,0,0,.162.013,1,1,0,0,0,.707-.292h0l.57-.57a1.5,1.5,0,0,0,0-2.121Z" fill="#000000" stroke="none" stroke-linecap="round" stroke-linejoin="round" stroke-width="0"></path><path d="M18.648,6.006a10.846,10.846,0,0,0-2.272,3.345.25.25,0,0,1-.406.077l-1.4-1.4A.249.249,0,0,1,14.5,7.8a.252.252,0,0,1,.146-.183,10.8,10.8,0,0,0,3.345-2.272.984.984,0,0,0,.048-1.389,1.009,1.009,0,0,0-1.388,0A9.741,9.741,0,0,1,12.234,6.43l0,0-.1.031A9.678,9.678,0,0,0,7.668,8.9,11.98,11.98,0,0,0,4.9,12.966a5.719,5.719,0,0,1-1.213,1.941A3.284,3.284,0,0,1,2,15.878a2.074,2.074,0,0,0-1.46,1.377A1.89,1.89,0,0,0,.983,19.19l3.825,3.824a1.859,1.859,0,0,0,1.32.547,1.911,1.911,0,0,0,.594-.095,2.1,2.1,0,0,0,1.4-1.488,3.273,3.273,0,0,1,.966-1.667A5.7,5.7,0,0,1,11.032,19.1a11.951,11.951,0,0,0,4.061-2.769,9.68,9.68,0,0,0,2.442-4.464l.03-.1,0-.005a9.752,9.752,0,0,1,2.466-4.417,1.01,1.01,0,0,0,.3-.723.941.941,0,0,0-.3-.664A.985.985,0,0,0,18.648,6.006ZM6.254,18.451a1,1,0,1,1,0-1.415A1,1,0,0,1,6.254,18.451Zm4.6-1.768a1,1,0,1,1,0-1.414A1,1,0,0,1,10.85,16.683Zm1.061-4.6a1,1,0,1,1,0-1.414A1,1,0,0,1,11.911,12.087Z" fill="#000000" stroke="none" stroke-linecap="round" stroke-linejoin="round" stroke-width="0"></path></g></svg>